<?xml version="1.0" standalone="no"?>
<!DOCTYPE svg PUBLIC "-//W3C//DTD SVG 20010904//EN"
 "http://www.w3.org/TR/2001/REC-SVG-20010904/DTD/svg10.dtd">
<svg version="1.0" xmlns="http://www.w3.org/2000/svg"
 width="300.000000pt" height="300.000000pt" viewBox="0 0 300.000000 300.000000"
 preserveAspectRatio="xMidYMid meet">
<metadata>
Created by potrace 1.14, written by Peter Selinger 2001-2017
</metadata>
<g transform="translate(0.000000,300.000000) scale(0.100000,-0.100000)"
fill="#000000" stroke="none">
<path d="M1046 2989 c-322 -26 -530 -100 -682 -242 -155 -145 -245 -317 -303
-582 -23 -105 -45 -264 -40 -286 3 -11 212 116 747 453 l743 469 732 -469
c673 -431 732 -467 735 -445 5 36 -25 226 -54 338 -57 225 -143 383 -277 511
-141 134 -302 203 -567 241 -125 18 -860 27 -1034 12z"/>
<path d="M1475 2085 c-5 -2 -22 -6 -37 -9 -39 -9 -98 -64 -119 -111 -38 -82
-12 -179 64 -239 72 -58 198 -45 264 26 30 32 53 90 53 133 0 74 -61 165 -124
184 -42 13 -89 20 -101 16z"/>
<path d="M5 1693 c-11 -180 1 -646 20 -779 32 -237 107 -419 222 -544 64 -69
174 -160 194 -160 5 0 9 283 9 665 0 366 -2 665 -5 665 -3 0 -44 -25 -90 -55
-47 -30 -87 -55 -89 -55 -2 0 -59 88 -126 195 -67 107 -124 195 -125 195 -2 0
-6 -57 -10 -127z"/>
<path d="M2865 1636 c-66 -104 -123 -193 -126 -198 -4 -6 -45 15 -93 46 -48
31 -89 56 -91 56 -3 0 -5 -299 -5 -665 0 -366 3 -665 7 -665 22 0 114 74 183
147 131 138 200 303 236 563 18 124 29 681 17 814 l-8 90 -120 -188z"/>
<path d="M1170 920 l0 -400 330 0 330 0 0 400 0 400 -330 0 -330 0 0 -400z"/>
<path d="M490 180 c226 -124 642 -190 1120 -177 391 11 658 61 865 161 l70 34
-1045 1 c-1037 0 -1045 0 -1010 -19z"/>
</g>
</svg>
